<?xml version="1.0" encoding="UTF-8"?>
<svg id="Layer_2" data-name="Layer 2" xmlns="http://www.w3.org/2000/svg" viewBox="0 0 324.69 221.02">
  <defs>
    <style>
      .cls-1 {
        fill: #fff;
      }
    </style>
  </defs>
  <g id="Layer_1-2" data-name="Layer 1">
    <path class="cls-1" d="M302.03,162.51c-13.94-9.76-34.13-19.82-57.09-28.47l24.03-119.16-19.16,3.69,3.69-18.57-124.98,21.93-16.86,84.74c-51.63-3.48-106.82.92-111.34,23.6-2.76,13.88,11.73,29.39,41.89,44.86,28.55,14.64,67.79,27.39,110.49,35.88,33.09,6.58,65.23,10.01,92.9,10.01,8.04,0,15.71-.29,22.91-.88,33.79-2.75,53.11-11.54,55.87-25.42,1.92-9.65-5.61-20.49-22.37-32.22ZM214.52,161.69c-13.74-.04-30.71-1.47-50.2-4.92-21.63-3.83-39.49-8.92-52.96-14.15.11-.46.26-1.12.49-2.09l22.42-112.73,110.65-19.41-2.28,11.44h.08s-28.21,141.86-28.21,141.86ZM82.51,122.54c.62-3.49,8.32-7.7,27.73-8.69l-5.21,26.17c-15.3-6.69-23.27-13.3-22.53-17.47ZM163.15,163.37c18.51,3.28,36.44,4.98,51.82,4.98,4.48,0,8.75-.15,12.76-.44,19.7-1.45,30.39-6.17,31.79-14.04.24-1.35.17-2.7-.17-4.07,10.92,7.22,16.56,14.37,15.57,19.95-1.31,7.42-14.4,13.3-35,15.73-22.5,2.65-51.58,1.16-81.89-4.21-30.31-5.37-58.14-13.95-78.36-24.16-18.51-9.35-28.78-19.37-27.47-26.79,1.12-6.33,10.83-11.59,26.63-14.48-1.56,1.62-2.56,3.45-2.92,5.51-2.99,16.91,41.63,33.93,87.25,42ZM243.34,142c7.5,4.75,9.96,8.55,9.58,10.7-.5,2.82-5.1,5.31-13.14,6.95l3.56-17.65ZM260.43,23.35l-27.71,137.42c-3.4.4-7.18.68-11.34.83l27.03-135.92,12.03-2.32ZM317.83,193.42c-4.03,20.25-70.81,29.51-163.8,11.02C61.03,185.94,2.88,151.83,6.91,131.57c2.04-10.24,24.11-17,57.07-18.78-10.85,3.86-17.14,9.4-18.38,16.37-1.94,10.96,8.8,22.7,31.05,33.94,20.79,10.5,49.27,19.3,80.21,24.78,20.89,3.7,41.24,5.59,59.38,5.59,8.73,0,16.94-.44,24.46-1.32,24.76-2.92,38.87-10.26,40.81-21.22.92-5.22-1.1-10.66-5.9-16.16,27.53,14.04,44.19,28.72,42.21,38.66Z"/>
  </g>
</svg>